#tb 0: 1001/30000
0,          0,          0,        1,  1382400, 0xa3e49817
0,          1,          1,        1,  1382400, 0x544fdfac
0,          2,          2,        1,  1382400, 0x84964e11
0,          3,          3,        1,  1382400, 0xc608c8d1
0,          4,          4,        1,  1382400, 0xf2f1404f
0,          5,          5,        1,  1382400, 0x5a3100ba
0,          6,          6,        1,  1382400, 0x3727baa9
0,          7,          7,        1,  1382400, 0x894f07db
0,          8,          8,        1,  1382400, 0x3ef27d46
0,          9,          9,        1,  1382400, 0x1f90880d
0,         10,         10,        1,  1382400, 0x11efba85
0,         11,         11,        1,  1382400, 0xb7bef0be
0,         12,         12,        1,  1382400, 0xe8c180b3
0,         13,         13,        1,  1382400, 0x63eea00c
0,         14,         14,        1,  1382400, 0xe83b7792
0,         15,         15,        1,  1382400, 0x8c75a3a0
0,         16,         16,        1,  1382400, 0x23e5009b
0,         17,         17,        1,  1382400, 0x80c200aa
0,         18,         18,        1,  1382400, 0xd62dfbf2
0,         19,         19,        1,  1382400, 0xc4e42292
0,         20,         20,        1,  1382400, 0x560189a7
0,         21,         21,        1,  1382400, 0xc38c7354
0,         22,         22,        1,  1382400, 0xed0eaa63
0,         23,         23,        1,  1382400, 0xd3b6fd21
0,         24,         24,        1,  1382400, 0xc3d92310
0,         25,         25,        1,  1382400, 0x418fe8dc
0,         26,         26,        1,  1382400, 0x675eb25d
0,         27,         27,        1,  1382400, 0x8ca46b0e
0,         28,         28,        1,  1382400, 0x16dc2a05
0,         29,         29,        1,  1382400, 0xad5f9d75
0,         30,         30,        1,  1382400, 0xc948d7b4
0,         31,         31,        1,  1382400, 0xac5399aa
0,         32,         32,        1,  1382400, 0x55b5de1a
0,         33,         33,        1,  1382400, 0x4aeb5786
0,         34,         34,        1,  1382400, 0xf23cd44b
0,         35,         35,        1,  1382400, 0x93d8e09a
0,         36,         36,        1,  1382400, 0xe50b3e39
0,         37,         37,        1,  1382400, 0x3aef6088
0,         38,         38,        1,  1382400, 0xc63e12d6
0,         39,         39,        1,  1382400, 0x6db7da70
0,         40,         40,        1,  1382400, 0x1d3cc1fc
0,         41,         41,        1,  1382400, 0x4b7b9f60
0,         42,         42,        1,  1382400, 0xd7085204
0,         43,         43,        1,  1382400, 0xa03351d5
0,         44,         44,        1,  1382400, 0xf217eb48
0,         45,         45,        1,  1382400, 0x26db360f
0,         46,         46,        1,  1382400, 0xef60bc21
0,         47,         47,        1,  1382400, 0xd5cae61c
0,         48,         48,        1,  1382400, 0x7ae014aa
0,         49,         49,        1,  1382400, 0xd6aa6a5f
0,         50,         50,        1,  1382400, 0x2b923690
0,         51,         51,        1,  1382400, 0xda483cd2
0,         52,         52,        1,  1382400, 0xd0cc2cbf
0,         53,         53,        1,  1382400, 0x16aefbbd
0,         54,         54,        1,  1382400, 0x5699147d
0,         55,         55,        1,  1382400, 0x64538efb
0,         56,         56,        1,  1382400, 0x980ce769
0,         57,         57,        1,  1382400, 0xe0b26ab9
0,         58,         58,        1,  1382400, 0x944c928d
0,         59,         59,        1,  1382400, 0x04b6a5dc
0,         60,         60,        1,  1382400, 0xd8d75e7f
0,         61,         61,        1,  1382400, 0x41e33a2e
0,         62,         62,        1,  1382400, 0xf0d822e1
0,         63,         63,        1,  1382400, 0xcd9a4e0e
0,         64,         64,        1,  1382400, 0x9945af7e
0,         65,         65,        1,  1382400, 0xf9f29dbf
0,         66,         66,        1,  1382400, 0xfe726ab0
0,         67,         67,        1,  1382400, 0xa573c2d2
0,         68,         68,        1,  1382400, 0xab3668a0
0,         69,         69,        1,  1382400, 0xd17ec034
0,         70,         70,        1,  1382400, 0x836fbc3c
0,         71,         71,        1,  1382400, 0xaf55e155
0,         72,         72,        1,  1382400, 0xca6d3dd1
0,         73,         73,        1,  1382400, 0x3f46fb57
0,         74,         74,        1,  1382400, 0x403de836
0,         75,         75,        1,  1382400, 0x37c096ce
0,         76,         76,        1,  1382400, 0xaaae3808
0,         77,         77,        1,  1382400, 0x3dde08a3
0,         78,         78,        1,  1382400, 0xcfcfde20
0,         79,         79,        1,  1382400, 0xb75b7c9a
0,         80,         80,        1,  1382400, 0xa23da721
0,         81,         81,        1,  1382400, 0x3793f3a0
0,         82,         82,        1,  1382400, 0xdf9fa2b5
0,         83,         83,        1,  1382400, 0x16b9eca2
0,         84,         84,        1,  1382400, 0x2fde62ed
0,         85,         85,        1,  1382400, 0x9e1763dd
0,         86,         86,        1,  1382400, 0x8714688b
0,         87,         87,        1,  1382400, 0xd0e2c092
0,         88,         88,        1,  1382400, 0x87458c27
0,         89,         89,        1,  1382400, 0xb0359f7c
0,         90,         90,        1,  1382400, 0x915dfd20
0,         91,         91,        1,  1382400, 0xf6591ac5
0,         92,         92,        1,  1382400, 0x351277c8
0,         93,         93,        1,  1382400, 0xd5eb9aaf
0,         94,         94,        1,  1382400, 0x922e8f24
0,         95,         95,        1,  1382400, 0xbea75cfb
0,         96,         96,        1,  1382400, 0x4f735db5
0,         97,         97,        1,  1382400, 0xbac11a91
0,         98,         98,        1,  1382400, 0x7677f6a4
0,         99,         99,        1,  1382400, 0xc6fa90f2
0,        100,        100,        1,  1382400, 0xcb49aa16
0,        101,        101,        1,  1382400, 0x0726e158
0,        102,        102,        1,  1382400, 0xaf420441
0,        103,        103,        1,  1382400, 0xd2b62c00
0,        104,        104,        1,  1382400, 0xdc473c19
0,        105,        105,        1,  1382400, 0x147d4b64
0,        106,        106,        1,  1382400, 0xd5fbb379
0,        107,        107,        1,  1382400, 0xd45ec082
0,        108,        108,        1,  1382400, 0x5bb0a62c
0,        109,        109,        1,  1382400, 0xeb074b1d
0,        110,        110,        1,  1382400, 0xda198549
0,        111,        111,        1,  1382400, 0xdcc6dddf
0,        112,        112,        1,  1382400, 0x024fcaf5
0,        113,        113,        1,  1382400, 0x6e42b2b1
0,        114,        114,        1,  1382400, 0x6e649f4f
0,        115,        115,        1,  1382400, 0x7cc572ad
0,        116,        116,        1,  1382400, 0x9f73fc6c
0,        117,        117,        1,  1382400, 0x354e445c
0,        118,        118,        1,  1382400, 0x1b05856d
0,        119,        119,        1,  1382400, 0xc5792ad1
0,        120,        120,        1,  1382400, 0xc4b918f3
0,        121,        121,        1,  1382400, 0x8714d6cc
0,        122,        122,        1,  1382400, 0x8c7c192e
0,        123,        123,        1,  1382400, 0xaae13bcf
0,        124,        124,        1,  1382400, 0x851f1b46
0,        125,        125,        1,  1382400, 0x69161bc7
0,        126,        126,        1,  1382400, 0x213013ac
0,        127,        127,        1,  1382400, 0x8ff056c7
0,        128,        128,        1,  1382400, 0xbaa74a19
0,        129,        129,        1,  1382400, 0xdd403bc4
0,        130,        130,        1,  1382400, 0x11b24a5e
0,        131,        131,        1,  1382400, 0x4a572c65
0,        132,        132,        1,  1382400, 0x2bab021a
0,        133,        133,        1,  1382400, 0x2c88ea90
0,        134,        134,        1,  1382400, 0xed06d888
0,        135,        135,        1,  1382400, 0x9c9f5313
0,        136,        136,        1,  1382400, 0xde0ddb34
0,        137,        137,        1,  1382400, 0x6ae5049e
0,        138,        138,        1,  1382400, 0x45111ff0
0,        139,        139,        1,  1382400, 0x41b0236e
0,        140,        140,        1,  1382400, 0x61aefb1a
0,        141,        141,        1,  1382400, 0x01be5023
0,        142,        142,        1,  1382400, 0x3e77ccd1
0,        143,        143,        1,  1382400, 0x4a2393c5
0,        144,        144,        1,  1382400, 0xb23e5038
0,        145,        145,        1,  1382400, 0x4113e576
0,        146,        146,        1,  1382400, 0x299852a3
0,        147,        147,        1,  1382400, 0x3605da75
0,        148,        148,        1,  1382400, 0x8d58a2e5
0,        149,        149,        1,  1382400, 0xe7d4d2a2
0,        150,        150,        1,  1382400, 0x6ee0a6a3
0,        151,        151,        1,  1382400, 0xca726ba5
0,        152,        152,        1,  1382400, 0xb14baa41
0,        153,        153,        1,  1382400, 0x687d0afe
0,        154,        154,        1,  1382400, 0x2f779851
0,        155,        155,        1,  1382400, 0x5c2b3588
0,        156,        156,        1,  1382400, 0x629716e6
0,        157,        157,        1,  1382400, 0x19be9df0
0,        158,        158,        1,  1382400, 0xeda022c1
0,        159,        159,        1,  1382400, 0x51cdb18e
0,        160,        160,        1,  1382400, 0xb679a6bb
0,        161,        161,        1,  1382400, 0xe9f0cc71
0,        162,        162,        1,  1382400, 0xb516a1e5
0,        163,        163,        1,  1382400, 0xcae9b366
0,        164,        164,        1,  1382400, 0xf8d2993b
0,        165,        165,        1,  1382400, 0x4080b22e
0,        166,        166,        1,  1382400, 0x844c76c9
0,        167,        167,        1,  1382400, 0x7c4eb9a8
0,        168,        168,        1,  1382400, 0x33f2cfa3
0,        169,        169,        1,  1382400, 0x9903e01b
0,        170,        170,        1,  1382400, 0x5b0b9ab5
0,        171,        171,        1,  1382400, 0x71450e90
0,        172,        172,        1,  1382400, 0x3c77e4c0
0,        173,        173,        1,  1382400, 0x88bd15ec
0,        174,        174,        1,  1382400, 0xf947c408
0,        175,        175,        1,  1382400, 0x480825ab
0,        176,        176,        1,  1382400, 0xe738f1a6
0,        177,        177,        1,  1382400, 0x7322b57c
